<svg id="ic-comparison-modal" xmlns="http://www.w3.org/2000/svg" width="28" height="28" viewBox="0 0 28 28">
  <path id="Path_738" data-name="Path 738" d="M0,0H28V28H0Z" fill="none"/>
  <path id="Path_739" data-name="Path 739" d="M23,5.333H19.267L17.167,3h-7l-2.1,2.333H4.333A2.34,2.34,0,0,0,2,7.667v14A2.34,2.34,0,0,0,4.333,24H23a2.34,2.34,0,0,0,2.333-2.333v-14A2.34,2.34,0,0,0,23,5.333Zm0,16.333H13.667V20.5a5.833,5.833,0,1,1,0-11.667V7.667H23Zm-3.5-7a5.777,5.777,0,0,0-5.833-5.833v2.1a3.733,3.733,0,0,1,0,7.467v2.1A5.777,5.777,0,0,0,19.5,14.667Zm-9.567,0A3.686,3.686,0,0,0,13.667,18.4V10.933A3.686,3.686,0,0,0,9.933,14.667Z" transform="translate(0.333 0.5)" fill="#6da95c"/>
</svg>
