<svg xmlns="http://www.w3.org/2000/svg" width="22" height="22" viewBox="0 0 22 22">
  <path id="ic-out" d="M15.707,17.293a1,1,0,1,1-1.414,1.414L13,17.414V22a1,1,0,0,1-2,0V17.414L9.707,18.707a1,1,0,0,1-1.414-1.414l3-3a1,1,0,0,1,1.416,0ZM12,1a1,1,0,0,0-1,1V6.586L9.707,5.293A1,1,0,0,0,8.293,6.707l3,3a1,1,0,0,0,1.416,0l3-3A1,1,0,1,0,14.3,5.293L13,6.586V2a1,1,0,0,0-1-1ZM9.706,11.292l-3-3A1,1,0,0,0,5.293,9.707L6.586,11H2a1,1,0,0,0,0,2H6.586L5.293,14.293a1,1,0,1,0,1.414,1.414l3-3a1,1,0,0,0,0-1.415ZM22,11H17.414l1.293-1.293a1,1,0,0,0-1.414-1.414l-3,3a1,1,0,0,0,0,1.416l3,3A1,1,0,0,0,18.707,14.3L17.414,13H22a1,1,0,0,0,0-2Z" transform="translate(-1 -1)" fill="#fff"/>
</svg>
